<svg width="24" height="24" viewBox="0 0 24 24" fill="none" xmlns="http://www.w3.org/2000/svg"><circle cx="12" cy="12" r="12" fill="#222"/><path fill-rule="evenodd" clip-rule="evenodd" d="M18.958 9.114c-.034-.745-.152-1.254-.325-1.7a3.43 3.43 0 0 0-.808-1.24 3.432 3.432 0 0 0-1.24-.807c-.445-.173-.954-.29-1.699-.325C14.14 5.008 13.901 5 12 5c-1.901 0-2.14.008-2.886.042-.745.034-1.254.153-1.7.326a3.43 3.43 0 0 0-1.24.807c-.355.35-.63.773-.807 1.24-.173.445-.29.954-.325 1.699C5.008 9.86 5 10.099 5 12c0 1.901.008 2.14.042 2.886.034.745.153 1.254.326 1.7.175.466.45.89.807 1.24.35.355.773.63 1.24.806.445.174.954.292 1.7.326.746.034.984.042 2.885.042 1.901 0 2.14-.008 2.886-.042.745-.034 1.254-.152 1.7-.325a3.579 3.579 0 0 0 2.047-2.048c.173-.445.29-.954.325-1.699.034-.746.042-.985.042-2.886 0-1.901-.008-2.14-.042-2.886zm-1.26 5.715c-.031.682-.145 1.053-.241 1.3a2.318 2.318 0 0 1-1.329 1.328c-.246.096-.617.21-1.3.241-.737.034-.959.04-2.828.04-1.87 0-2.09-.006-2.829-.04-.682-.031-1.053-.145-1.3-.24a2.17 2.17 0 0 1-.804-.525 2.168 2.168 0 0 1-.524-.804c-.096-.247-.21-.618-.241-1.3-.034-.738-.04-.96-.04-2.829 0-1.87.006-2.09.04-2.829.031-.682.145-1.053.241-1.3a2.17 2.17 0 0 1 .524-.804c.226-.233.5-.412.805-.524.246-.096.617-.21 1.3-.241.738-.034.959-.04 2.828-.04 1.87 0 2.09.006 2.829.04.682.031 1.053.145 1.3.241.303.112.578.291.804.524.233.226.412.5.524.805.096.246.21.617.241 1.3.034.738.04.959.04 2.828 0 1.87-.006 2.09-.04 2.829zM12 8.405a3.595 3.595 0 1 0 0 7.19 3.595 3.595 0 0 0 0-7.19zm0 5.928a2.333 2.333 0 1 1 0-4.666 2.333 2.333 0 0 1 0 4.666zm3.737-5.23a.84.84 0 1 0 0-1.68.84.84 0 0 0 0 1.68z" fill="#fff"/></svg>