<svg width="24" height="24" viewBox="0 0 24 24" xmlns="http://www.w3.org/2000/svg"><g id="Icons" stroke="none" stroke-width="1" fill="none" fill-rule="evenodd"><g id="telegram-copy-4"><rect id="back" fill="#222" x="0" y="0" width="24" height="24" rx="12"/><g id="ico" transform="translate(4 6)" fill="#FFF"><path d="M13.055.076L.654 4.762c-.847.332-.842.795-.155 1l3.093.947 1.184 3.554c.143.389.073.543.49.543.321 0 .464-.144.643-.315l1.547-1.474 3.217 2.329c.592.32 1.02.154 1.167-.539l2.112-9.748c.216-.85-.33-1.235-.897-.983zM4.078 6.491l6.971-4.308c.348-.207.667-.096.405.132l-5.97 5.276-.232 2.428-1.174-3.528z" id="path9"/></g></g></g></svg>