<svg width="24" height="24" viewBox="0 0 24 24" xmlns="http://www.w3.org/2000/svg"><g id="Icons" stroke="none" stroke-width="1" fill="none" fill-rule="evenodd"><g id="vkontakte-copy-4"><rect id="back" fill="#222" x="0" y="0" width="24" height="24" rx="12"/><path d="M8.236 8.317s.27-.03.409-.174c.127-.134.123-.385.123-.385s-.018-1.174.54-1.347c.551-.17 1.258 1.135 2.007 1.637.567.38.997.296.997.296l2.003-.027s1.048-.063.551-.867c-.04-.066-.29-.595-1.489-1.682-1.256-1.138-1.088-.954.425-2.922.921-1.199 1.29-1.93 1.175-2.244-.11-.298-.788-.22-.788-.22l-2.255.014s-.167-.022-.291.05c-.122.071-.2.236-.2.236s-.357.928-.833 1.717C9.606 4.063 9.205 4.15 9.04 4.048c-.381-.241-.286-.968-.286-1.484 0-1.613.25-2.286-.488-2.46C8.02.046 7.84.008 7.213.002c-.805-.008-1.486.002-1.871.187-.257.123-.455.396-.334.411.149.02.486.09.665.327.231.307.223.996.223.996s.133 1.899-.31 2.135c-.304.161-.721-.169-1.616-1.679C3.51 1.606 3.165.75 3.165.75S3.098.59 2.979.505C2.834.402 2.632.37 2.632.37L.49.382S.168.392.05.528C-.056.649.041.9.041.9s1.677 3.832 3.577 5.763C5.361 8.433 7.34 8.317 7.34 8.317h.897z" transform="translate(4 8)" id="ico" fill="#FFF"/></g></g></svg>