<svg width="24" height="24" viewBox="0 0 24 24" xmlns="http://www.w3.org/2000/svg"><g fill="none" fill-rule="evenodd"><rect fill="#222" fill-rule="nonzero" width="24" height="24" rx="12"/><path d="M19.571 8.172a1.985 1.985 0 0 0-1.397-1.406C16.942 6.433 12 6.433 12 6.433s-4.942 0-6.174.333a1.986 1.986 0 0 0-1.397 1.406c-.33 1.24-.33 3.828-.33 3.828s0 2.588.33 3.828a1.986 1.986 0 0 0 1.397 1.407c1.232.332 6.174.332 6.174.332s4.942 0 6.174-.332a1.986 1.986 0 0 0 1.397-1.407c.33-1.24.33-3.828.33-3.828s0-2.588-.33-3.828" fill="#FFF"/><path fill="#222" d="M10.384 14.35l4.13-2.35-4.13-2.35v4.7"/></g></svg>